<svg width="31" height="22" viewBox="0 0 31 22" fill="none" xmlns="http://www.w3.org/2000/svg">
<path d="M8.14305 15.2857C8.93202 15.2857 9.57162 14.6462 9.57162 13.8572C9.57162 13.0682 8.93202 12.4286 8.14305 12.4286C7.35408 12.4286 6.71448 13.0682 6.71448 13.8572C6.71448 14.6462 7.35408 15.2857 8.14305 15.2857Z" stroke="white" stroke-width="2" stroke-linecap="round" stroke-linejoin="round"/>
<path d="M1 6.71429V1.85714C1 1.38376 1.38376 1 1.85714 1H28.7143C29.1877 1 29.5714 1.38376 29.5714 1.85714V6.71429M1 6.71429V20.1429C1 20.6163 1.38376 21 1.85714 21H28.7143C29.1877 21 29.5714 20.6163 29.5714 20.1429V6.71429M1 6.71429H29.5714" stroke="white" stroke-width="2" stroke-linecap="round" stroke-linejoin="round"/>
</svg>
