<svg width="16" height="15" viewBox="0 0 16 15" fill="none" xmlns="http://www.w3.org/2000/svg">
<path d="M1 7.88236V4.89413C1 4.33408 1 4.05405 1.10899 3.84014C1.20487 3.65198 1.35785 3.499 1.54601 3.40312C1.75992 3.29413 2.03995 3.29413 2.6 3.29413H3.29412" stroke="#8B8B8B" stroke-width="2"/>
<path d="M14.7646 7.88236V4.89413C14.7646 4.33408 14.7646 4.05405 14.6557 3.84014C14.5598 3.65198 14.4068 3.499 14.2186 3.40312C14.0047 3.29413 13.7247 3.29413 13.1646 3.29413H12.4705" stroke="#8B8B8B" stroke-width="2"/>
<path d="M2.5293 1.76471L4.82341 3.29412L2.5293 4.82353V1.76471Z" fill="#8B8B8B"/>
<path d="M13.2354 1.76471L10.9412 3.29412L13.2354 4.82353V1.76471Z" fill="#8B8B8B"/>
<path d="M10.1765 10.9412C10.1765 10.4476 10.1765 10.2008 10.2617 10.0078C10.3624 9.77982 10.5446 9.59762 10.7726 9.49695C10.9656 9.41174 11.2124 9.41174 11.7059 9.41174L12.4706 10.1764H13.1647C13.7248 10.1764 14.0048 10.1764 14.2187 10.2854C14.4069 10.3813 14.5599 10.5343 14.6558 10.7225C14.7647 10.9364 14.7647 11.2164 14.7647 11.7764V12.4C14.7647 12.96 14.7647 13.2401 14.6558 13.454C14.5599 13.6421 14.4069 13.7951 14.2187 13.891C14.0048 14 13.7248 14 13.1647 14H11.7765C11.2165 14 10.9364 14 10.7225 13.891C10.5344 13.7951 10.3814 13.6421 10.2855 13.454C10.1765 13.2401 10.1765 12.96 10.1765 12.4V10.9412Z" fill="#8B8B8B" stroke="#8B8B8B" stroke-width="2" stroke-linejoin="round"/>
<path d="M1 10.9412C1 10.4476 1 10.2008 1.08521 10.0078C1.18588 9.77982 1.36807 9.59762 1.59608 9.49695C1.78905 9.41174 2.03584 9.41174 2.52941 9.41174L3.29412 10.1764H3.98824C4.54829 10.1764 4.82831 10.1764 5.04223 10.2854C5.23039 10.3813 5.38337 10.5343 5.47924 10.7225C5.58824 10.9364 5.58824 11.2164 5.58824 11.7764V12.4C5.58824 12.96 5.58824 13.2401 5.47924 13.454C5.38337 13.6421 5.23039 13.7951 5.04223 13.891C4.82831 14 4.54829 14 3.98824 14H2.6C2.03995 14 1.75992 14 1.54601 13.891C1.35785 13.7951 1.20487 13.6421 1.10899 13.454C1 13.2401 1 12.96 1 12.4V10.9412Z" fill="#8B8B8B" stroke="#8B8B8B" stroke-width="2" stroke-linejoin="round"/>
<path d="M5.58813 2.52941C5.58813 2.03584 5.58813 1.78905 5.67334 1.59608C5.77402 1.36807 5.95621 1.18588 6.18421 1.08521C6.37719 1 6.62397 1 7.11755 1L7.88225 1.76471H8.57637C9.13642 1.76471 9.41645 1.76471 9.63036 1.8737C9.81852 1.96957 9.9715 2.12255 10.0674 2.31072C10.1764 2.52463 10.1764 2.80465 10.1764 3.36471V3.98824C10.1764 4.54829 10.1764 4.82831 10.0674 5.04223C9.9715 5.23039 9.81852 5.38337 9.63036 5.47924C9.41645 5.58824 9.13642 5.58824 8.57637 5.58824H7.18813C6.62808 5.58824 6.34806 5.58824 6.13414 5.47924C5.94598 5.38337 5.793 5.23039 5.69713 5.04223C5.58813 4.82831 5.58813 4.54829 5.58813 3.98824V2.52941Z" fill="#8B8B8B" stroke="#8B8B8B" stroke-width="2" stroke-linejoin="round"/>
</svg>
