<svg width="28" height="22" viewBox="0 0 28 22" fill="none" xmlns="http://www.w3.org/2000/svg">
<path d="M1 21V19.8236C1 15.2753 4.68707 11.5883 9.23529 11.5883C13.7835 11.5883 17.4706 15.2753 17.4706 19.8236V21" stroke="#FFF5F5" stroke-width="2" stroke-linecap="round"/>
<path d="M15.1177 13.9412C15.1177 10.6925 17.7513 8.05884 21 8.05884C24.2487 8.05884 26.8824 10.6925 26.8824 13.9412V14.5294" stroke="#FFF5F5" stroke-width="2" stroke-linecap="round"/>
<path d="M24.53 4.52941C24.53 6.47865 22.9499 8.05882 21.0006 8.05882C19.0513 8.05882 17.4712 6.47865 17.4712 4.52941C17.4712 2.58018 19.0513 1 21.0006 1C22.9499 1 24.53 2.58018 24.53 4.52941Z" stroke="#FFF5F5" stroke-width="2" stroke-linecap="round" stroke-linejoin="round"/>
<path d="M13.9415 6.8824C13.9415 9.48134 11.8346 11.5883 9.23567 11.5883C6.63668 11.5883 4.52979 9.48134 4.52979 6.8824C4.52979 4.28341 6.63668 2.17651 9.23567 2.17651C11.8346 2.17651 13.9415 4.28341 13.9415 6.8824Z" stroke="#FFF5F5" stroke-width="2" stroke-linecap="round" stroke-linejoin="round"/>
</svg>
