<svg width="12" height="12" viewBox="0 0 12 12" fill="none" xmlns="http://www.w3.org/2000/svg">
<path d="M1.99316 6.76596C1.99316 6.6056 1.99316 6.52542 1.99776 6.45773C2.06553 5.45997 2.85987 4.66563 3.85763 4.59786C3.92532 4.59326 4.0055 4.59326 4.16586 4.59326H7.22342C7.38378 4.59326 7.46396 4.59326 7.53165 4.59786C8.52941 4.66563 9.32375 5.45997 9.39152 6.45773C9.39612 6.52542 9.39612 6.6056 9.39612 6.76596V6.76596C9.39612 7.00649 9.39612 7.12676 9.38922 7.22829C9.28757 8.72494 8.09605 9.91645 6.59941 10.0181C6.49788 10.025 6.37761 10.025 6.13708 10.025H5.25221C5.01167 10.025 4.8914 10.025 4.78987 10.0181C3.29323 9.91645 2.10171 8.72494 2.00006 7.22829C1.99316 7.12676 1.99316 7.0065 1.99316 6.76596V6.76596Z" stroke="#AFAFAF"/>
<path d="M7.54547 4.14067V3.72818C7.54547 2.70604 6.71687 1.87744 5.69473 1.87744V1.87744C4.6726 1.87744 3.84399 2.70604 3.84399 3.72818V4.14067" stroke="#AFAFAF" stroke-linecap="round"/>
</svg>
