<svg width="61" height="66" viewBox="0 0 61 66" fill="none" xmlns="http://www.w3.org/2000/svg">
<path d="M30.7222 32.5H40.4444H30.7222ZM40.4444 32.5L36.2777 36.6667L40.4444 32.5ZM40.4444 32.5L36.2777 28.3334L40.4444 32.5Z" fill="#101010"/>
<path d="M30.7222 32.5H40.4444M40.4444 32.5L36.2777 36.6667M40.4444 32.5L36.2777 28.3334" stroke="white" stroke-width="3" stroke-linecap="round" stroke-linejoin="round"/>
<path d="M40.4444 24.1667V22.7778C40.4444 21.2437 39.2008 20 37.6667 20H23.7778C22.2437 20 21 21.2437 21 22.7778V42.2222C21 43.7564 22.2437 45 23.7778 45H37.6667C39.2008 45 40.4444 43.7564 40.4444 42.2222V40.8333" stroke="white" stroke-width="3" stroke-linecap="round" stroke-linejoin="round"/>
<ellipse cx="30.5" cy="33" rx="30.5" ry="33" fill="#D9D9D9" fill-opacity="0.31"/>
</svg>
