<svg width="15" height="15" viewBox="0 0 15 15" fill="none" xmlns="http://www.w3.org/2000/svg">
<path d="M9.65604 7.45745C9.65604 8.44369 8.83571 9.26182 7.80055 9.26182C6.7654 9.26182 5.94507 8.44369 5.94507 7.45745C5.94507 6.47121 6.7654 5.65308 7.80055 5.65308C8.83571 5.65308 9.65604 6.47121 9.65604 7.45745Z" stroke="#AFAFAF"/>
<path d="M12.2286 6.39932C12.6415 6.84208 12.848 7.06347 12.848 7.45742C12.848 7.85136 12.6415 8.07275 12.2286 8.51551C11.2808 9.53182 9.65147 10.914 7.80057 10.914C5.94967 10.914 4.32038 9.53182 3.37254 8.51551C2.9596 8.07275 2.75313 7.85136 2.75313 7.45742C2.75313 7.06347 2.9596 6.84208 3.37254 6.39932C4.32038 5.38301 5.94967 4.00085 7.80057 4.00085C9.65147 4.00085 11.2808 5.38301 12.2286 6.39932Z" stroke="#AFAFAF"/>
</svg>
